<?xml version="1.0" encoding="UTF-8"?><svg id="Ebene_2" xmlns="http://www.w3.org/2000/svg" viewBox="0 0 668.76 668.76"><defs><style>.cls-1,.cls-2{stroke-width:0px;}.cls-2{fill:#fff;}</style></defs><path class="cls-2" d="m81.49,262.77l6.15,10.74c6.82,11.91,16.38,21.85,27.76,29.09h40.39v-39.83h-74.3Z"/><path class="cls-2" d="m170.81,262.77v59.22l42.1,12c4.65,1.32,8.99,3.26,12.97,5.7v-76.92h-55.07Zm76.16,101.87c2.47,6.1,3.82,12.74,3.82,19.64v21.71h50.4v-41.35h-54.22Z"/><path class="cls-2" d="m478.42,364.14c.43-1.24.81-2.51,1.16-3.8-.36,1.29-.74,2.56-1.16,3.8Zm-19.65,27.01c-2.26-12.5-8.3-24.14-17.41-33.26l-5.1-5.09c-2.71-2.71-5.65-5.14-8.75-7.28-.28,1.37-.62,2.67-1.02,3.92-.11.35-.23.69-.35,1.03-.15.4-.3.79-.46,1.18-.04.12-.09.24-.15.36-.31.74-.65,1.46-1.02,2.15-.1.19-.2.37-.3.54-.22.39-.45.78-.69,1.15-.22.35-.45.69-.69,1.02-.07.11-.15.22-.23.32-.46.63-.95,1.22-1.47,1.79-.43.48-.89.94-1.37,1.37l-.03.03c-.27.25-.54.49-.82.71-.19.17-.38.32-.57.46-.21.17-.43.33-.64.48-.04.04-.08.06-.12.09-.17.12-.34.24-.52.36,0,0-.01.01-.02.01-.16.12-.33.23-.51.33-.27.18-.54.34-.82.5-.32.19-.64.36-.97.54-.79.41-1.61.79-2.47,1.13-.39.16-.79.31-1.2.45-.32.11-.64.22-.97.33-.04,0-.09.02-.14.04-.27.08-.54.16-.82.24-.09.03-.18.06-.27.07-.29.09-.58.16-.88.23-.05.02-.1.03-.15.04-.21.06-.43.11-.64.15-.17.05-.34.08-.51.12-.35.07-.71.14-1.07.21-.37.07-.74.13-1.11.19-.04,0-.08.01-.12.02-.44.06-.89.13-1.35.18-.41.05-.83.1-1.26.14-.14.02-.28.03-.43.04-.23.03-.47.05-.7.06-.32.03-.64.05-.97.07-.22.01-.43.02-.65.03-.51.03-1.03.05-1.56.06-.52.01-1.06.02-1.6.02h-25.9v-33.3h-34.28c-6.8,0-13.56-.84-20.14-2.47v74.08h82.28c.48,0,.96,0,1.44-.01.48,0,.95,0,1.43-.01.95-.01,1.88-.03,2.81-.06.91-.02,1.81-.05,2.7-.09,1.07-.04,2.13-.09,3.17-.16.57-.03,1.14-.06,1.7-.11,1.82-.11,3.59-.27,5.32-.45.43-.04.85-.08,1.27-.13,3.5-.38,6.84-.88,10.01-1.48.68-.12,1.34-.26,2-.39,5.93-1.23,11.3-2.85,16.14-4.85,1.07-.44,2.12-.9,3.14-1.38,1.53-.72,3.01-1.49,4.43-2.29.48-.27.94-.54,1.4-.81.46-.28.92-.56,1.37-.85.89-.55,1.76-1.14,2.61-1.75,6.37-4.57,11.35-10.15,15.06-16.71-3.73,6.55-8.7,12.13-15.06,16.69Z"/><path class="cls-1" d="m428.52,334.38c0,1.32-.03,2.6-.11,3.84-.02.38-.04.76-.07,1.13-.01.16-.02.33-.04.49-.03.32-.05.64-.09.96-.04.44-.09.88-.15,1.31-.03.28-.07.55-.11.82,0,.07-.01.13-.03.2-.04.29-.08.58-.13.86-.02.13-.04.25-.06.37-.07.39-.14.78-.22,1.16-10.39-7.18-22.76-11.14-35.53-11.14h-22.01v-33.3h24.16c25.03,0,34.39,14.8,34.39,33.3Z"/><path class="cls-1" d="m246.97,364.64h-21.09v-24.95c9.55,5.86,16.93,14.63,21.09,24.95Z"/><path class="cls-1" d="m615.7,309.57h46.37c0-23.88-10.18-45.73-66.18-48.99-5.83-20.68-14.04-40.37-24.31-58.78l-33.44,13.46c-20.5,8.23-31.08,31.08-24.16,51.98l2.46,7.4c-13.9,8.98-20.45,21.41-20.45,35.14s6.53,24.6,17.63,30.26c7.46,3.87,18.99,6.32,30.78,7.86,5.51,6.26,12.84,10.82,21.17,12.86l38.01,9.54c.73-5.48,1.29-11.03,1.68-16.61,5.18,1.66,7.4,4.53,7.4,8.77,0,7.4-4.57,13.93-33.52,13.93s-34.61-8.27-34.61-18.5h-47.67c0,19.37,7.4,50.71,83.8,50.71,61.19,0,80.76-17.75,86.02-36.97-18.53,167.14-160.22,297.13-332.3,297.13C149.71,668.76,0,519.05,0,334.38c0-10.72.53-21.32,1.51-31.78h49.37v103.39h54.41v-103.39h10.11c6.72,4.27,14.07,7.61,21.88,9.84l33.53,9.55v84h79.98v30.4c0,14.37,8.09,27.43,20.89,33.83,12.8,6.4,20.9,19.46,20.9,33.83v50.94c0,20.38,19.46,35.14,39.06,29.52,21.03-6.01,37.35-22.86,42.71-44.15l3.66-14.63c5.48-22.07,19.85-41.01,39.57-52.24l10.58-6.01c19.6-11.1,31.61-32,31.61-54.47v-10.84c0-3.71-.35-7.39-1-11v-.02c6.36-4.56,11.33-10.14,15.06-16.69.53-.94,1.04-1.9,1.52-2.87.88-1.8,1.69-3.67,2.41-5.61.23-.61.45-1.22.66-1.84.42-1.24.8-2.51,1.16-3.8.18-.64.35-1.29.51-1.95.16-.66.32-1.33.47-2,.44-2.01.81-4.08,1.11-6.21.1-.7.19-1.41.28-2.12v-.05c.08-.64.15-1.29.22-1.94.02-.18.03-.35.05-.53.06-.63.11-1.27.16-1.91.06-.74.11-1.5.15-2.25.03-.5.05-.99.07-1.49.02-.42.04-.84.05-1.26.02-.7.04-1.4.05-2.11.01-.71.02-1.42.02-2.14,0-40.49-22.64-71.61-91.42-71.61h-75.75v69.14c-7.45-1.84-14.67-4.68-21.4-8.5l-45.06-25.73c-5.62-3.27-9.93-8.49-12.02-14.63-4.18-12.54,1.44-26.13,13.32-32l7.71-3.92c8.62-4.31,18.68-5.1,27.82-1.96l30.3,10.06c10.71,3.52,22.47-.53,28.61-9.8,6.14-9.14,5.49-21.29-1.57-29.78l-17.76-21.29c-13.06-15.68-12.93-38.53.39-53.95l20.51-23.9c11.49-13.45,13.32-32.65,4.57-47.94l-3.14-5.48c-4.57-.26-9.01-.39-13.58-.39-121.21,0-224.01,79.54-258.88,189.39l6.12,10.68H7.71C40.5,112.51,174.29,0,334.38,0c184.67,0,334.38,149.71,334.38,334.38,0,6.59-.21,13.13-.59,19.63-1.26-12.86-8.86-22.53-21.34-27.68-10.03-4.25-23.82-6.1-41.22-7.52-.45-8.02-1.25-15.94-2.39-23.76,8.53,2.86,12.48,7.89,12.48,14.52Z"/><path class="cls-1" d="m155.79,262.77v39.83h-40.39c-11.38-7.24-20.94-17.18-27.76-29.09l-6.15-10.74h74.3Z"/><path class="cls-1" d="m225.88,262.77v76.92c-3.98-2.44-8.32-4.38-12.97-5.7l-42.1-12v-59.22h55.07Z"/><path class="cls-1" d="m301.19,364.64v41.35h-50.4v-21.71c0-6.9-1.35-13.54-3.82-19.64h54.22Z"/><path class="cls-1" d="m458.77,391.15c-.85.61-1.72,1.2-2.61,1.77-.45.29-.91.57-1.37.85-.46.27-.92.54-1.4.81-1.42.8-2.9,1.57-4.43,2.29-1.02.48-2.07.94-3.14,1.38-4.84,2-10.21,3.62-16.14,4.85-.66.13-1.32.27-2,.39-3.17.6-6.51,1.1-10.01,1.48-.42.05-.84.09-1.27.13-1.73.18-3.5.34-5.32.45-.56.05-1.13.08-1.7.11-1.04.07-2.1.12-3.17.16-.89.04-1.79.07-2.7.09-.93.03-1.86.05-2.81.06-.48.01-.95.01-1.43.01-.48.01-.96.01-1.44.01h-82.28v-74.08c6.58,1.63,13.34,2.47,20.14,2.47h34.28v33.3h25.9c.54,0,1.08-.01,1.6-.02.53-.01,1.05-.03,1.56-.06.22-.01.43-.02.65-.03.33-.02.65-.04.97-.07.23-.01.47-.03.7-.06.15-.01.29-.02.43-.04.43-.04.85-.08,1.26-.14.46-.05.91-.12,1.35-.18.04-.01.08-.02.12-.02.37-.06.74-.12,1.11-.19.36-.07.72-.14,1.07-.21.17-.04.34-.07.51-.12.21-.04.43-.09.64-.15.05-.01.1-.02.15-.04.3-.06.59-.14.88-.23.09-.01.18-.04.27-.07.28-.08.55-.16.82-.24.05-.02.1-.03.14-.04.33-.11.65-.22.97-.33.41-.14.81-.29,1.2-.45.86-.34,1.68-.72,2.47-1.13.33-.18.65-.35.97-.54.28-.16.55-.32.82-.5.18-.1.35-.21.51-.33.01,0,.02-.01.02-.01.18-.12.35-.24.52-.36.04-.03.08-.05.12-.09.21-.15.43-.31.64-.48.19-.14.38-.29.57-.46.28-.22.55-.46.82-.71l.03-.03c.48-.43.94-.89,1.37-1.37.52-.57,1.01-1.16,1.47-1.79.08-.1.16-.21.23-.32.24-.33.47-.67.69-1.02.24-.37.47-.76.69-1.15.1-.17.2-.35.3-.54.37-.69.71-1.41,1.02-2.15.06-.12.11-.24.15-.36.16-.39.31-.78.46-1.18.12-.34.24-.68.35-1.03.4-1.25.74-2.55,1.02-3.92,3.1,2.14,6.04,4.57,8.75,7.28l5.1,5.09c9.11,9.12,15.15,20.76,17.41,33.26Z"/><path class="cls-1" d="m606.06,334.38h-.13c0,6.48-.23,12.92-.67,19.31-.68-.22-1.4-.41-2.18-.59-7.4-1.53-25.9-2.4-40.7-3.48-5.72-.38-11.89-.93-17.98-1.72-3.66-4.15-6.53-9.02-8.35-14.43l-19.61-58.83c13.85-8.95,35-14.48,64.22-14.48,5.42,0,10.49.14,15.23.42,3.17,11.22,5.63,22.72,7.33,34.47-5.19-1.74-12.08-2.68-20.82-2.68-22.63,0-31.56,5.44-31.56,13.28,0,4.13,2.39,6.96,7.4,8.49,6.53,2.17,24.6,2.83,40.49,4.13,2.35.18,4.64.35,6.88.54.3,5.15.45,10.34.45,15.57Z"/></svg>